<?xml version="1.0" standalone="no"?><!DOCTYPE svg PUBLIC "-//W3C//DTD SVG 1.1//EN" "http://www.w3.org/Graphics/SVG/1.1/DTD/svg11.dtd"><svg t="1492765094633" class="icon" style="" viewBox="0 0 1024 1024" version="1.1" xmlns="http://www.w3.org/2000/svg" p-id="1011" xmlns:xlink="http://www.w3.org/1999/xlink" width="64" height="64"><defs><style type="text/css"></style></defs><path d="M960.131367 637.032668c0-70.289879-28.763091-134.39285-76.04086-182.942589C877.072673 657.358599 696.126554 820.162522 473.904357 820.162522c-12.112875 0-24.093744-0.512676-35.939537-1.458211 54.688553 56.858986 134.621047 92.725868 223.677339 92.725868 25.452695 0 50.15633-2.938935 73.741491-8.446369l104.522542 52.199872c38.950104 19.452028 30.446429-20.919449 30.416753-21.052478l-18.98233-85.234243C917.773653 798.568714 960.131367 722.349799 960.131367 637.032668zM828.671313 415.70791c0-194.166211-171.222663-351.570147-382.439202-351.570147S63.788815 221.541699 63.788815 415.70791c0 109.312638 54.272068 206.969818 139.393747 271.452435l-24.327058 109.207237c-0.033769 0.170892-10.930957 51.897997 38.97671 26.974351l133.915989-66.883293c30.220279 7.058766 61.871139 10.82351 94.482885 10.82351C657.447627 767.282151 828.671313 609.879238 828.671313 415.70791z" p-id="1012" fill="#1296db"></path></svg>