<?xml version="1.0" standalone="no"?><!DOCTYPE svg PUBLIC "-//W3C//DTD SVG 1.1//EN" "http://www.w3.org/Graphics/SVG/1.1/DTD/svg11.dtd"><svg class="icon" style="" viewBox="0 0 1024 1024" version="1.1" xmlns="http://www.w3.org/2000/svg" p-id="1070" xmlns:xlink="http://www.w3.org/1999/xlink" width="32" height="32"><defs><style type="text/css"><![CDATA[

]]></style></defs><path d="M511.999975 1023.99995C229.677107 1023.99995 0 794.322844 0 511.999975 0 229.702034 229.677107 0 511.999975 0c282.297941 0 511.999975 229.702034 511.999975 511.999975C1023.99995 794.322844 794.297917 1023.99995 511.999975 1023.99995zM511.999975 77.67244c-239.473406 0-434.352462 194.829202-434.352462 434.327535s194.854129 434.352462 434.352462 434.352462c239.498333 0 434.327535-194.854129 434.327535-434.352462S751.498308 77.67244 511.999975 77.67244zM511.999975 141.709828c-51.947807 0-94.04946 42.076726-94.04946 94.024533s42.101653 94.04946 94.04946 94.04946c51.92288 0 94.024533-42.101653 94.024533-94.04946S563.922855 141.709828 511.999975 141.709828zM511.999975 694.21613c-51.947807 0-94.04946 42.101653-94.04946 94.04946s42.101653 94.04946 94.04946 94.04946c51.92288 0 94.024533-42.101653 94.024533-94.04946S563.922855 694.21613 511.999975 694.21613zM835.178148 331.229585c-25.375656-45.342159-82.632907-61.519763-127.999994-36.169034-45.342159 25.375656-61.54469 82.657834-36.144107 127.999994 25.350729 45.317232 82.60798 61.519763 127.975067 36.144107S860.50395 376.546817 835.178148 331.229585zM352.965903 600.964333c-25.375656-45.342159-82.632907-61.54469-127.999994-36.169034-45.317232 25.350729-61.54469 82.632907-36.169034 127.999994 25.400583 45.342159 82.657834 61.519763 127.999994 36.169034C362.139028 703.588671 378.341559 646.281565 352.965903 600.964333zM224.965909 459.204651c45.342159 25.375656 102.649265 9.173125 127.999994-36.144107 25.375656-45.317232 9.173125-102.624338-36.169034-127.999994-45.317232-25.350729-102.599411-9.173125-127.999994 36.169034C163.446146 376.546817 179.648677 433.828995 224.965909 459.204651zM707.178154 728.964327c45.342159 25.350729 102.624338 9.173125 127.999994-36.169034 25.350729-45.342159 9.173125-102.649265-36.169034-127.999994-45.342159-25.375656-102.624338-9.173125-127.975067 36.169034C645.633464 646.281565 661.835995 703.588671 707.178154 728.964327zM473.687221 580.524217c37.864068 21.187925 85.673998 7.702434 106.836996-30.211488 21.187925-37.839141 7.65258-85.673998-30.186561-106.836996-37.864068-21.187925-85.698925-7.677507-106.861923 30.211488C422.287808 511.526363 435.823153 559.336292 473.687221 580.524217z" p-id="1071" fill="#ffffff"></path></svg>