<?xml version="1.0" standalone="no"?><!DOCTYPE svg PUBLIC "-//W3C//DTD SVG 1.1//EN" "http://www.w3.org/Graphics/SVG/1.1/DTD/svg11.dtd"><svg t="1498097972961" class="icon" style="" viewBox="0 0 1024 1024" version="1.1" xmlns="http://www.w3.org/2000/svg" p-id="4620" xmlns:xlink="http://www.w3.org/1999/xlink" width="64" height="64"><defs><style type="text/css"></style></defs><path d="M512 1024c-137.874 0-451.049-236.13-451.049-406.309v-396.313c0.007-14.057 8.306-26.175 20.269-31.729 327.647-148.446 401.156-180.263 417.49-186.967 3.908-1.667 8.454-2.636 13.227-2.636 4.773 0 9.319 0.969 13.453 2.723 16.231 6.742 89.74 38.437 417.054 186.795 12.233 5.615 20.579 17.749 20.602 31.835v396.295c0 170.179-313.173 406.309-451.049 406.309zM109.714 230.278v387.413c0 138.118 288.67 357.547 402.286 357.547s402.286-219.429 402.286-357.547v-387.413c-296.961-134.095-379.855-170.667-402.286-180.297-22.43 9.509-105.326 45.714-402.286 180.297z" fill="#00C83C" p-id="4621"></path><path d="M865.524 259.657c-343.406-159.573-353.524-162.133-353.524-162.133s-10.118 2.56-353.524 162.133v342.43c0 127.878 247.467 324.389 353.524 324.389s353.524-196.51 353.524-324.389z" fill="#00C83C" p-id="4622"></path><path d="M865.524 354.499c-343.406-158.476-353.524-161.402-353.524-161.402s-10.118 2.56-353.524 161.402v247.345c0 127.269 247.467 322.682 353.524 322.682s353.524-195.049 353.524-322.682z" fill="#00C83C" p-id="4623"></path><path d="M467.87 653.775l-135.802-128.853c-1.809-1.695-2.935-4.099-2.935-6.766s1.127-5.071 2.93-6.761l53.277-50.595c1.717-1.61 4.035-2.601 6.583-2.601s4.866 0.99 6.588 2.606l69.359 65.824c1.717 1.612 4.035 2.601 6.583 2.601s4.866-0.99 6.588-2.606l168.833-160.178c1.717-1.612 4.035-2.601 6.583-2.601s4.866 0.99 6.588 2.606l53.267 50.586c1.809 1.695 2.935 4.099 2.935 6.766s-1.127 5.071-2.93 6.761l-235.281 223.212c-1.717 1.612-4.035 2.601-6.583 2.601s-4.866-0.99-6.588-2.606z" fill="#FFFFFF" p-id="4624"></path></svg>