<?xml version="1.0" standalone="no"?><!DOCTYPE svg PUBLIC "-//W3C//DTD SVG 1.1//EN" "http://www.w3.org/Graphics/SVG/1.1/DTD/svg11.dtd"><svg t="1492765306920" class="icon" style="" viewBox="0 0 1025 1024" version="1.1" xmlns="http://www.w3.org/2000/svg" p-id="2070" xmlns:xlink="http://www.w3.org/1999/xlink" width="64.0625" height="64"><defs><style type="text/css"></style></defs><path d="M723.857408 387.888128c0 3.22048-3.382272 8.856576-10.14784 16.91136-6.764544 8.056832-14.012416 17.557504-21.745664 28.511232-7.733248 10.950656-14.98112 22.87104-21.746688 35.756032-6.764544 12.884992-10.146816 26.09152-10.146816 39.622656s3.382272 26.575872 10.146816 39.143424c6.765568 12.561408 14.014464 23.999488 21.746688 34.30912 7.733248 10.308608 14.98112 18.842624 21.745664 25.608192 6.765568 6.764544 10.14784 11.11552 10.14784 13.04576l0 101.475328c0 10.953728-4.027392 23.355392-12.082176 37.20704-8.050688 13.852672-18.036736 26.898432-29.959168 39.143424-11.916288 12.239872-25.127936 22.386688-39.621632 30.441472-14.497792 8.055808-28.188672 12.079104-41.073664 12.079104L120.80128 841.142272c-17.391616 0-33.340416-3.059712-47.838208-9.18016-14.493696-6.119424-27.21792-14.65856-38.171648-25.608192-10.953728-10.953728-19.492864-23.83872-25.613312-38.658048C3.059712 752.873472 0 736.768 0 719.372288L0 302.841856c0-12.884992 2.898944-26.253312 8.695808-40.105984 5.801984-13.853696 14.01344-26.576896 24.645632-38.175744 10.630144-11.598848 23.1936-21.262336 37.691392-28.990464 14.497792-7.733248 30.442496-11.598848 47.839232-11.598848l480.31232 0c17.395712 0 33.668096 3.060736 48.805888 9.179136 15.142912 6.120448 28.351488 14.497792 39.622656 25.12896 11.277312 10.631168 20.133888 23.355392 26.580992 38.17472 6.441984 14.816256 9.663488 30.604288 9.663488 47.35488L723.857408 387.888128 723.857408 387.888128zM1024.41472 297.044992l0 441.659392c0 14.170112-3.705856 26.737664-11.11552 37.686272-7.406592 10.953728-18.521088 16.433152-33.34144 16.433152-5.151744 0-11.75552-1.936384-19.811328-5.801984-8.054784-3.866624-16.105472-8.373248-24.160256-13.530112-8.051712-5.151744-15.623168-10.308608-22.709248-15.461376-7.088128-5.156864-12.243968-9.340928-15.466496-12.561408-8.372224-7.088128-21.097472-19.332096-38.1696-36.727808-17.074176-17.395712-34.30912-37.045248-51.704832-58.949632-17.39776-21.907456-32.69632-44.455936-45.907968-67.648512-13.208576-23.197696-19.811328-44.45696-19.811328-63.789056 0-19.325952 7.08608-41.392128 21.262336-66.197504 14.175232-24.8064 31.248384-49.128448 51.221504-72.967168 19.97312-23.83872 40.912896-45.903872 62.815232-66.198528 21.907456-20.294656 40.271872-35.59936 55.087104-45.902848 5.796864-3.8656 13.691904-8.539136 23.677952-14.014464 9.985024-5.4784 18.84672-8.216576 26.575872-8.216576 17.395712 0 28.673024 4.834304 33.824768 14.497792 5.156864 9.664512 7.733248 21.5808 7.733248 35.756032L1024.41472 297.044992 1024.41472 297.044992zM1024.41472 297.044992" p-id="2071" fill="#1296db"></path></svg>