<?xml version="1.0" standalone="no"?><!DOCTYPE svg PUBLIC "-//W3C//DTD SVG 1.1//EN" "http://www.w3.org/Graphics/SVG/1.1/DTD/svg11.dtd"><svg t="1498098039596" class="icon" style="" viewBox="0 0 1024 1024" version="1.1" xmlns="http://www.w3.org/2000/svg" p-id="7025" xmlns:xlink="http://www.w3.org/1999/xlink" width="64" height="64"><defs><style type="text/css"></style></defs><path d="M853.504 433.664h-476.16l466.432-147.456c36.352-11.264 56.32-50.176 45.056-86.528l-27.136-86.528c-11.264-36.352-50.176-56.32-86.528-45.056L144.384 267.264c-36.352 11.264-56.32 50.176-45.056 86.528l27.136 86.528c2.048 6.656 5.12 12.8 9.216 18.432-11.776 13.312-18.944 30.72-18.944 49.664v376.32c0 41.472 33.792 75.264 75.264 75.264h661.504c41.472 0 75.264-33.792 75.264-75.264V508.416c0-41.472-33.792-74.752-75.264-74.752z m-51.2-309.76c2.048 1.536 4.096 3.584 5.12 6.144l27.136 86.528c2.048 6.144-1.536 12.8-7.68 14.848l-42.496 13.312 17.92-120.832z m-162.816 46.592l72.192-23.04-18.944 125.952-72.192 23.04 18.944-125.952zM476.16 222.208l72.192-23.04-18.944 125.952L457.216 348.16l18.944-125.952zM203.264 428.544l-7.168 2.048c-6.144 2.048-12.8-1.536-14.848-7.68L153.6 336.896c-2.048-6.144 1.536-12.8 7.68-14.848l60.416-18.944-18.432 125.44z m90.624-28.672l18.944-125.952 72.192-23.04-18.944 125.952-72.192 23.04z m317.44 321.024l-121.344 104.448c-7.68 6.656-17.92 9.728-28.16 9.728-5.12 0-10.24-1.024-15.36-2.56-14.848-5.12-24.576-17.408-24.576-31.232V592.384c0-13.824 9.728-26.112 24.576-31.232s31.744-2.56 43.008 7.168l121.344 104.448c15.872 13.312 15.872 34.816 0.512 48.128z" fill="#f6aa00" p-id="7026"></path></svg>