<?xml version="1.0" standalone="no"?><!DOCTYPE svg PUBLIC "-//W3C//DTD SVG 1.1//EN" "http://www.w3.org/Graphics/SVG/1.1/DTD/svg11.dtd"><svg t="1498098009669" class="icon" style="" viewBox="0 0 1024 1024" version="1.1" xmlns="http://www.w3.org/2000/svg" p-id="5516" xmlns:xlink="http://www.w3.org/1999/xlink" width="64" height="64"><defs><style type="text/css"></style></defs><path d="M779.072 617.392c20.08 0 36.4-43.648 36.4-97.472 0-53.84-16.336-97.472-36.4-97.472-20.144 0-36.384 43.648-36.384 97.472 0 53.824 16.256 97.472 36.384 97.472z m-315.632 48.752c20.128 0 36.432-38.192 36.432-85.296 0-47.072-16.32-85.264-36.432-85.264s-36.432 38.192-36.432 85.264c0 47.104 16.304 85.296 36.432 85.296zM14.272 544.336c0 243.008 223.52 438.576 497.728 438.576 274.24 0 497.744-195.584 497.744-438.576 0-243.088-212.944-437.568-487.152-437.568 3.536 0-5.744 0.48-7.936-2.112 0 0-3.744-1.536-11.808-7.664-20.592-15.664-30.848-22.224-48.256-32.496C399.264 31.824 326.096 11.328 242.256 11.328c-9.328 0-21.376 4.672-21.376 18.144 0 13.44 13.984 17.856 27.376 17.856 85.328 0 151.392 21.008 195.328 50 21.744 11.664 52.752 36.416 77.344 42.672 248.72 0 452.256 187.008 453.424 401.584C975.6 767.328 760.752 949.28 512 949.28S49.92 769.104 49.92 554.592c0-141.76 90.832-288.32 231.008-357.264 12.016-5.904 25.632-15.568 19.728-27.648s-18.896-14.592-30.944-8.688C113.552 237.808 14.272 383.12 14.272 544.336z" fill="#1296db" p-id="5517"></path></svg>