<?xml version="1.0" standalone="no"?><!DOCTYPE svg PUBLIC "-//W3C//DTD SVG 1.1//EN" "http://www.w3.org/Graphics/SVG/1.1/DTD/svg11.dtd"><svg t="1498910227387" class="icon" style="" viewBox="0 0 1024 1024" version="1.1" xmlns="http://www.w3.org/2000/svg" p-id="3509" xmlns:xlink="http://www.w3.org/1999/xlink" width="64" height="64"><defs><style type="text/css"></style></defs><path d="M541.090909 976.581818c-4.165818 0-8.343273-1.163636-12.008727-3.490909C513.698909 963.316364 152.203636 728.994909 152.203636 314.181818c0-8.238545 4.514909-15.802182 11.764364-19.712C374.760727 180.677818 525.114182 54.004364 526.603636 52.736c9.146182-7.738182 22.772364-6.923636 30.906182 1.850182 0.535273 0.570182 54.144 57.832727 153.239273 125.090909 10.24 6.946909 12.893091 20.875636 5.957818 31.115636-6.946909 10.24-20.898909 12.881455-31.115636 5.957818-73.949091-50.199273-123.112727-94.545455-146.071273-116.736C495.790545 135.098182 366.429091 234.682182 197.143273 327.424c6.981818 340.363636 281.728 555.240727 343.68 599.400727 61.661091-45.730909 336.395636-267.834182 344.157091-598.272-23.342545-10.612364-46.580364-21.981091-69.236364-33.873455-10.949818-5.748364-15.173818-19.293091-9.425455-30.242909 5.725091-10.949818 19.258182-15.208727 30.242909-9.425455 26.146909 13.730909 53.073455 26.717091 80.034909 38.621091 8.110545 3.584 13.346909 11.624727 13.346909 20.491636 0.093091 403.048727-361.053091 648.448-376.436364 658.688C549.76 975.325091 545.419636 976.581818 541.090909 976.581818z" p-id="3510" fill="#1296db"></path><path d="M535.261091 837.818182c-2.397091 0-4.817455-0.733091-6.888727-2.269091C526.114909 833.885091 302.778182 665.960727 267.706182 350.370909c-0.709818-6.388364 3.886545-12.136727 10.274909-12.846545 6.306909-0.768 12.136727 3.874909 12.846545 10.274909 33.954909 305.582545 249.169455 467.409455 251.333818 469.015273 5.178182 3.805091 6.283636 11.089455 2.466909 16.256C542.359273 836.177455 538.833455 837.818182 535.261091 837.818182z" p-id="3511" fill="#1296db"></path></svg>