<?xml version="1.0" standalone="no"?><!DOCTYPE svg PUBLIC "-//W3C//DTD SVG 1.1//EN" "http://www.w3.org/Graphics/SVG/1.1/DTD/svg11.dtd"><svg t="1498910403769" class="icon" style="" viewBox="0 0 1024 1024" version="1.1" xmlns="http://www.w3.org/2000/svg" p-id="4969" xmlns:xlink="http://www.w3.org/1999/xlink" width="64" height="64"><defs><style type="text/css"></style></defs><path d="M510.695796 65.62258C264.169053 65.62258 64.318376 265.472234 64.318376 512c0 246.528789 199.850677 446.37742 446.37742 446.37742S957.073216 758.528789 957.073216 512c0-246.527766-199.849654-446.37742-446.37742-446.37742z m0 864.856443c-230.750431 0-418.479023-187.727569-418.479023-418.479023S279.945365 93.520977 510.695796 93.520977 929.174819 281.248545 929.174819 512 741.447251 930.479023 510.695796 930.479023z" fill="#1296db" p-id="4970"></path><path d="M738.504222 477.431693l-312.497247-180.419116c-7.204076-4.15974-14.85022-6.058996-22.292725-6.058996-23.362081 0-44.790112 18.679431-44.790113 44.789089v360.841302c0 26.105564 21.431102 44.788066 44.790113 44.788066 7.446599 0 15.086603-1.898233 22.292725-6.058996l312.497247-180.421163c29.816073-17.214057 29.816073-60.247152 0-77.460186zM724.555535 530.730597L412.058288 711.151759c-2.668783 1.541099-5.474688 2.320858-8.344038 2.320859-8.124028 0-16.891715-6.457062-16.891716-16.889669V335.741647c0-10.432607 8.767688-16.889669 16.891716-16.889669 2.869351 0 5.675256 0.781806 8.344038 2.320859l312.497247 180.419116c7.592932 4.38282 8.413624 11.649318 8.413624 14.56881 0 2.920516-0.820692 10.187013-8.413624 14.569834z" fill="#1296db" p-id="4971"></path><path d="M638.010437 495.231081L462.854185 385.352555c-6.457062-4.113691-15.120372-2.125407-19.235087 4.400217-4.087085 6.5246-2.125407 15.134699 4.41352 19.22076l175.156252 109.877503a13.779841 13.779841 0 0 0 7.410783 2.13871c4.631484 0 9.181103-2.315742 11.824304-6.538927 4.087085-6.523577 2.125407-15.133675-4.41352-19.219737z" fill="#1296db" p-id="4972"></path></svg>